<?xml version="1.0" encoding="iso-8859-1"?>
<!-- Uploaded to: SVG Repo, www.svgrepo.com, Generator: SVG Repo Mixer Tools -->
<svg height="800px" width="800px" version="1.1" id="Layer_1" xmlns="http://www.w3.org/2000/svg" xmlns:xlink="http://www.w3.org/1999/xlink" 
	 viewBox="0 0 512.002 512.002" xml:space="preserve">
<path style="fill:#F8D176;" d="M144.987,175.895c-12.061,9.278-26.271,14.118-42.664,14.118c-39.493,0-71.509-32.016-71.509-71.509
	s32.016-71.509,71.509-71.509s71.509,32.016,71.509,71.509c0,0-1.372,18.813-6.558,28.837
	C160.126,161.159,144.987,175.895,144.987,175.895z"/>
<path style="fill:#FFEC97;" d="M46.356,134.049c0-39.493,32.016-71.509,71.509-71.509c15.78,0,30.359,5.123,42.185,13.781
	c-13.01-17.773-34.015-29.323-57.728-29.323c-39.493,0-71.509,32.016-71.509,71.509c0,23.713,11.55,44.718,29.323,57.728
	C51.479,164.407,46.356,149.829,46.356,134.049z"/>
<path style="fill:#EFB13F;" d="M120.021,167.162l13.628,15.814c3.969-1.963,7.751-4.321,11.338-7.081
	c0,0,15.139-14.736,22.287-28.553c1.277-2.468,2.322-5.471,3.172-8.593l-65.941-13.366l0,0
	C104.504,140.72,110.011,155.545,120.021,167.162z"/>
<g>
	<path style="fill:#E1E1E3;" d="M372.575,118.505H112.118c-6.502,0-10.001,7.635-5.757,12.56L233.142,278.19h18.407L378.33,131.066
		C382.576,126.14,379.077,118.505,372.575,118.505z"/>
	<path style="fill:#E1E1E3;" d="M299.905,487.06l-47.722-23.75h-19.704l-47.717,23.75c-8.072,4.018-5.213,16.18,3.804,16.18h107.535
		C305.119,503.24,307.978,491.078,299.905,487.06z"/>
</g>
<path style="fill:#F09EA0;" d="M308.114,186.209c-28.753,3.607-41.676-2.085-56.199-7.988
	c-21.446-8.716-32.265-24.041-51.974-29.819c-17.079-5.007-26.11-4.964-39.889,0.438l-10.771,4.526l88.914,103.517
	c1.131,1.312,2.777,2.067,4.509,2.067l0,0c1.732,0,3.379-0.754,4.509-2.067L308.114,186.209L308.114,186.209z"/>
<path style="fill:#EF8990;" d="M247.211,256.883l52.903-61.393l7.998-9.282c-9.568,1.201-17.376,1.367-24.081,0.842l-45.52,70.163
	c1.111,1.104,2.613,1.734,4.189,1.734C244.435,258.949,246.08,258.195,247.211,256.883z"/>
<path d="M488.978,5.382c-1.866-4.463-6.998-6.569-11.461-4.702l-91.454,38.235c-1.487,0.621-2.773,1.641-3.719,2.946l-49.13,67.885
	H182.395c-4.38-40.153-38.482-71.509-79.781-71.509c-43.679,0-80.27,36.565-80.27,80.269c0,44.261,36.009,80.269,80.27,80.269
	c15.179,0,28.976-3.782,41.14-11.228l12.551,14.564c3.159,3.666,8.692,4.075,12.353,0.918c3.666-3.158,4.076-8.688,0.918-12.355
	l-23.158-26.873c14.451-7.252,28.583-10.111,42.101-8.468c15.145,1.84,25.076,8.706,36.574,16.656
	c8.44,5.836,17.165,11.87,28.707,16.562c11.848,4.814,24.499,7.22,37.882,7.22c6.899,0,13.994-0.645,21.271-1.924l-70.322,81.607
	l-49.408-57.336c-3.159-3.665-8.691-4.074-12.353-0.918c-3.666,3.158-4.076,8.69-0.918,12.355l52.682,61.135
	c0.374,0.433,0.79,0.819,1.232,1.166v161.128l-85.218,42.415c-3.639,1.811-5.555,5.889-4.624,9.847
	c0.931,3.958,4.462,6.755,8.527,6.755h180.161c4.066,0,7.596-2.797,8.527-6.755c0.931-3.958-0.985-8.036-4.624-9.847l-85.218-42.411
	V291.855c0.443-0.347,0.858-0.732,1.232-1.166l143.446-166.466c2.235-2.595,2.754-6.254,1.328-9.368
	c-1.428-3.114-4.539-5.11-7.963-5.11h-34.599l40.251-55.618l89.18-37.286C488.738,14.976,490.843,9.845,488.978,5.382
	C487.111,0.92,490.843,9.845,488.978,5.382z M189.811,494.48l52.817-26.288l52.824,26.288H189.811z M164.74,109.746h-53.125
	l26.703-42.801C152.37,76.707,162.255,92.051,164.74,109.746z M102.615,55.756c6.987,0,13.704,1.166,19.986,3.282L93.378,105.88
	L54.899,77.822C66.417,64.334,83.529,55.756,102.615,55.756z M39.865,118.505c0-9.223,2.017-17.979,5.606-25.876l38.583,28.134
	l-26.209,41.651C46.735,151.09,39.865,135.588,39.865,118.505z M102.615,181.255c-11.195,0-21.706-2.961-30.815-8.12l25.127-39.932
	l35.191,40.839C123.319,178.828,113.436,181.255,102.615,181.255z M333.309,170.227c-27.409,9.897-51.935,10.617-72.909,2.093
	c-9.757-3.966-17.68-9.443-25.34-14.741c-12.286-8.494-24.988-17.277-44.426-19.638c-18.277-2.22-37.077,1.91-55.952,12.238
	l-19.745-22.914h222.737c0.002,0,0.005,0,0.007,0c0.003,0,0.007,0,0.009,0h32.638L333.309,170.227z"/>
</svg>