<?xml version="1.0" encoding="iso-8859-1"?>
<!-- Uploaded to: SVG Repo, www.svgrepo.com, Generator: SVG Repo Mixer Tools -->
<svg height="800px" width="800px" version="1.1" id="Layer_1" xmlns="http://www.w3.org/2000/svg" xmlns:xlink="http://www.w3.org/1999/xlink" 
	 viewBox="0 0 504 504" xml:space="preserve">
<circle style="fill:#90DFAA;" cx="252" cy="252" r="252"/>
<circle style="fill:#FFD05B;" cx="143.4" cy="154" r="45.2"/>
<polygon style="fill:#E6E9EE;" points="299.1,163.7 279.9,163.7 279.9,110.3 322.8,71.5 335.8,85.8 299.1,118.8 "/>
<path style="fill:#FFFFFF;" d="M307.6,405.6L307.6,405.6c-15.9,0-28.8-12.9-28.8-28.8v-59.2L390,152.1H142.7l111.2,165.5v59.2
	c0,15.9-12.9,28.8-28.8,28.8c-14.9,0-27,12.1-27,27h136.4l0,0C334.6,417.7,322.5,405.6,307.6,405.6z"/>
<polygon style="fill:#FF7058;" points="204.8,207.3 266.4,298.8 327.9,207.3 "/>
</svg>